:SAMPLES-PER-SECOND 30
:FULLY-SPECIFIED
:DEGREES
350
root  5.01992 40.7456 -3.9588 -135.566 -87.7905 138.482
RightUpLeg  -9.19429 -9.68674 -3.53352
RightLeg  8.66644 -11.0433 4.34142
RightFoot  -2.60899 0.273242 -3.80657
RightToes  -4.65663e-010 0 -3.6325e-017
Spine  1.77041 1.46822 7.11861
Spine1  11.1647 2.25433 -2.42302
HEad  20.9525 9.17373 -5.92407
LeftShoulder1  6.98217 -9.80807 -45.7106
LeftArm  -16.1112 31.3601 -22.8215
LeftForeArm  86.9598 -78.7022 -47.2595
LeftHand  -0.244104 0.0205437 5.32207
RightShoulder  6.43426 9.93101 41.6519
RightArm  2.64216 -16.1204 27.0958
RightForeArm  -42.2942 40.3315 11.5561
RightHand  -3.73797 8.28633 -31.2736
LeftUpLeg  -10.7047 11.5871 4.64543
LeftLeg  12.3649 5.13845 0.291726
LeftFoot  -6.37617 0.197124 -3.7023
LeftToes  4.18335e-011 1.59304e-011 3.38507e-012
351
root  5.00857 40.7637 -3.65212 -151.482 -87.966 154.065
RightUpLeg  -8.51301 -9.56897 -3.44685
RightLeg  7.97171 -10.8831 4.44001
RightFoot  -2.09559 0.271974 -3.53773
RightToes  -4.65663e-010 0 -3.6325e-017
Spine  1.39345 1.42215 7.29278
Spine1  12.2485 2.11021 -2.12872
HEad  25.2477 9.2217 -5.99588
LeftShoulder1  6.92763 -9.65967 -45.868
LeftArm  -15.8764 31.0674 -23.0361
LeftForeArm  87.2613 -78.7474 -47.4983
LeftHand  -0.244104 0.0205437 5.32207
RightShoulder  6.44279 9.94125 41.677
RightArm  2.85633 -15.7247 26.6572
RightForeArm  -42.3047 39.9544 11.4211
RightHand  -3.70021 8.21215 -31.1346
LeftUpLeg  -8.75185 7.29916 4.75138
LeftLeg  9.0667 6.59672 -0.669968
LeftFoot  -3.76285 0.191916 -2.57678
LeftToes  4.18335e-011 1.59304e-011 3.38507e-012
352
root  4.9825 40.818 -3.37137 -161.891 -87.9892 164.227
RightUpLeg  -7.72777 -9.26992 -3.55412
RightLeg  6.90979 -10.9279 4.53308
RightFoot  -1.40033 0.258568 -3.08036
RightToes  -4.65663e-010 0 -3.6325e-017
Spine  0.827754 1.41861 6.63751
Spine1  13.3166 1.86815 -1.40262
HEad  29.1078 8.94626 -5.90365
LeftShoulder1  6.87406 -9.51009 -46.0395
LeftArm  -15.5811 30.7827 -23.0703
LeftForeArm  85.874 -78.4801 -45.9974
LeftHand  -0.244104 0.0205437 5.32207
RightShoulder  6.49575 9.93955 42.0505
RightArm  3.03651 -15.3432 26.1555
RightForeArm  -41.9024 39.2839 11.1733
RightHand  -3.63005 8.11568 -30.7825
LeftUpLeg  -7.5417 5.03583 4.5318
LeftLeg  6.92971 6.60124 -1.0747
LeftFoot  -1.81198 0.118493 -1.27495
LeftToes  4.18335e-011 1.59304e-011 3.38507e-012
353
root  4.95307 40.8825 -3.13348 -161.52 -88.0546 163.713
RightUpLeg  -7.0762 -8.97844 -3.91779
RightLeg  5.9302 -11.2007 4.54566
RightFoot  -0.755339 0.237483 -2.61626
RightToes  -4.65663e-010 0 -3.6325e-017
Spine  0.231932 1.39723 5.29464
Spine1  14.2253 1.58186 -0.561627
HEad  32.259 8.31088 -5.5394
LeftShoulder1  6.78708 -9.35428 -46.0046
LeftArm  -15.3341 30.5481 -22.8691
LeftForeArm  84.3076 -78.1382 -44.187
LeftHand  -0.244104 0.0205437 5.32207
RightShoulder  6.54511 9.88786 42.5669
RightArm  2.90346 -15.1148 26.1663
RightForeArm  -41.2666 38.2313 10.7927
RightHand  -3.55332 8.02164 -30.3685
LeftUpLeg  -6.80431 4.95274 4.50401
LeftLeg  5.72926 6.48147 -1.77194
LeftFoot  -0.980923 0.0807632 -0.819497
LeftToes  4.18335e-011 1.59304e-011 3.38507e-012
354
root  4.92033 40.9311 -2.90114 -159.143 -87.9584 161.211
RightUpLeg  -6.54476 -8.82931 -4.37603
RightLeg  5.12409 -11.2857 4.54865
RightFoot  -0.215204 0.215493 -2.22218
RightToes  -4.65663e-010 0 -3.6325e-017
Spine  -0.155299 1.40205 4.33155
Spine1  14.9305 1.57563 -0.482767
HEad  34.5317 7.51806 -4.99034
LeftShoulder1  6.6807 -9.20439 -45.81
LeftArm  -15.2292 30.5132 -22.3667
LeftForeArm  84.4029 -78.1139 -43.9997
LeftHand  -0.244104 0.0205437 5.32207
RightShoulder  6.5454 9.80641 42.8458
RightArm  2.49347 -15.3921 26.9738
RightForeArm  -41.328 37.5267 10.5593
RightHand  -3.56184 8.0458 -30.3846
LeftUpLeg  -5.92695 5.45876 4.66974
LeftLeg  4.48171 6.6943 -2.89875
LeftFoot  -0.617291 0.109088 -1.12115
LeftToes  4.18335e-011 1.59304e-011 3.38507e-012
355
root  4.87859 40.9761 -2.63718 -161.906 -87.5098 163.905
RightUpLeg  -5.99978 -8.75787 -4.78394
RightLeg  4.07169 -10.8835 4.67143
RightFoot  0.448329 0.198603 -1.87756
RightToes  -4.65663e-010 0 -3.6325e-017
Spine  -0.376348 1.49683 4.23662
Spine1  15.4463 1.94852 -1.33947
HEad  35.948 6.86856 -4.52201
LeftShoulder1  6.60016 -9.07342 -45.7247
LeftArm  -15.4254 30.7627 -21.7739
LeftForeArm  85.1239 -78.2648 -44.7434
LeftHand  -0.244104 0.0205437 5.32207
RightShoulder  6.53898 9.77762 42.8998
RightArm  2.41206 -16.1576 27.9225
RightForeArm  -41.9214 37.6776 10.6279
RightHand  -3.60402 8.0849 -30.6419
LeftUpLeg  -4.83107 5.62259 4.62884
LeftLeg  2.74941 6.99922 -3.80903
LeftFoot  0.0105589 0.107773 -1.09065
LeftToes  4.18335e-011 1.59304e-011 3.38507e-012
356
root  4.83639 41.0249 -2.34843 -165.125 -86.9927 167.22
RightUpLeg  -5.54353 -8.725 -5.14864
RightLeg  2.80758 -10.3158 4.84381
RightFoot  1.26997 0.182685 -1.57455
RightToes  -4.65663e-010 0 -3.6325e-017
Spine  -0.596631 1.59185 4.30461
Spine1  15.7429 2.31214 -2.20911
HEad  36.662 6.52764 -4.32892
LeftShoulder1  6.55964 -8.96612 -45.8369
LeftArm  -16.0221 31.1825 -21.5153
LeftForeArm  84.3921 -78.1547 -44.2749
LeftHand  -0.244104 0.0205437 5.32207
RightShoulder  6.57831 9.8309 42.9907
RightArm  3.12295 -16.8845 28.2569
RightForeArm  -41.3398 38.0709 10.7406
RightHand  -3.50044 7.83737 -30.3295
LeftUpLeg  -4.08054 5.57023 4.24488
LeftLeg  1.21405 7.37142 -4.18215
LeftFoot  0.767035 0.034656 -0.370444
LeftToes  4.18335e-011 1.59304e-011 3.38507e-012
357
root  4.81464 41.051 -2.05872 -165.383 -86.8477 167.654
RightUpLeg  -5.39238 -8.79994 -5.53395
RightLeg  2.04584 -10.1103 4.8843
RightFoot  1.90251 0.163309 -1.29385
RightToes  -4.65663e-010 0 -3.6325e-017
Spine  -0.729743 1.56896 3.90341
Spine1  15.794 2.33328 -2.35985
HEad  36.8593 6.36439 -4.32301
LeftShoulder1  6.54113 -8.90382 -45.9391
LeftArm  -16.7538 31.5138 -21.7524
LeftForeArm  82.8209 -77.7947 -42.5545
LeftHand  -0.244104 0.0205437 5.32207
RightShoulder  6.6245 9.885 43.1255
RightArm  4.1729 -17.2328 28.1405
RightForeArm  -38.9946 37.9343 10.6211
RightHand  -3.25046 7.31752 -29.3697
LeftUpLeg  -4.0305 5.35922 3.76449
LeftLeg  0.717331 7.92369 -4.29763
LeftFoot  1.04673 -0.0485094 0.390621
LeftToes  4.18335e-011 1.59304e-011 3.38507e-012
358
root  4.82356 41.0526 -1.77372 -164.084 -87.0475 166.398
RightUpLeg  -5.37071 -8.99633 -5.97797
RightLeg  1.87183 -10.1964 4.83004
RightFoot  2.24312 0.131076 -0.971034
RightToes  -4.65663e-010 0 -3.6325e-017
Spine  -0.531933 1.49246 3.29561
Spine1  15.6707 2.19917 -2.12955
HEad  36.7413 6.06036 -4.24486
LeftShoulder1  6.53819 -8.91621 -45.871
LeftArm  -17.0384 31.5353 -22.1555
LeftForeArm  82.4133 -77.5658 -41.3714
LeftHand  -0.244104 0.0205437 5.32207
RightShoulder  6.62286 9.87686 43.1419
RightArm  4.71407 -17.4189 28.1681
RightForeArm  -36.7734 37.4376 10.3824
RightHand  -3.08624 6.9834 -28.6782
LeftUpLeg  -4.27477 5.14051 3.29123
LeftLeg  0.965474 8.20302 -4.32964
LeftFoot  0.921536 -0.100247 0.88193
LeftToes  4.18335e-011 1.59304e-011 3.38507e-012
359
root  4.85381 41.0275 -1.48679 -164.134 -87.202 166.325
RightUpLeg  -5.47215 -9.24296 -6.42258
RightLeg  2.25451 -10.06 4.72837
RightFoot  2.29464 0.0743685 -0.490386
RightToes  -4.65663e-010 0 -3.6325e-017
Spine  -0.0548524 1.51313 2.91498
Spine1  15.5182 2.23578 -2.0976
HEad  36.5364 5.47928 -3.97272
LeftShoulder1  6.55794 -8.98938 -45.7369
LeftArm  -16.606 31.2619 -22.3361
LeftForeArm  82.9276 -77.5804 -41.2955
LeftHand  -0.244104 0.0205437 5.32207
RightShoulder  6.60715 9.86076 43.0884
RightArm  4.61217 -17.6296 28.3592
RightForeArm  -36.3802 37.064 10.2469
RightHand  -3.09619 7.00869 -28.7071
LeftUpLeg  -4.65607 4.90644 2.82689
LeftLeg  1.79623 8.27082 -4.20478
LeftFoot  0.579075 -0.148427 1.38931
LeftToes  4.18335e-011 1.59304e-011 3.38507e-012
360
root  4.89673 40.9832 -1.20323 -166.819 -87.1153 168.883
RightUpLeg  -5.8125 -9.45169 -6.75277
RightLeg  3.00601 -9.64106 4.55777
RightFoot  2.23076 0.00200157 0.110951
RightToes  -4.65663e-010 0 -3.6325e-017
Spine  0.396295 1.63155 2.5559
Spine1  15.3968 2.38677 -2.13608
HEad  36.4292 4.83998 -3.63566
LeftShoulder1  6.59655 -9.07223 -45.7031
LeftArm  -15.8659 30.9552 -22.3147
LeftForeArm  82.8028 -77.6135 -41.5171
LeftHand  -0.244104 0.0205437 5.32207
RightShoulder  6.62953 9.90057 43.107
RightArm  4.48514 -17.6024 28.3534
RightForeArm  -36.9887 36.653 10.1363
RightHand  -3.1419 7.12864 -28.8459
LeftUpLeg  -5.20955 4.84172 2.49067
LeftLeg  3.00418 8.39384 -4.06301
LeftFoot  0.0889782 -0.196524 1.95892
LeftToes  4.18335e-011 1.59304e-011 3.38507e-012
361
root  4.95246 40.9225 -0.932281 -170.937 -86.8682 172.925
RightUpLeg  -6.46636 -9.86942 -6.88403
RightLeg  4.17605 -9.00687 4.19724
RightFoot  2.0662 -0.0759182 0.765532
RightToes  -4.65663e-010 0 -3.6325e-017
Spine  0.73938 1.74126 1.87162
Spine1  15.236 2.41288 -1.84727
HEad  36.4568 4.4221 -3.42647
LeftShoulder1  6.64094 -9.14086 -45.7639
LeftArm  -15.3525 30.8282 -22.3734
LeftForeArm  81.9646 -77.565 -41.5094
LeftHand  -0.244104 0.0205437 5.32207
RightShoulder  6.66649 9.96389 43.1458
RightArm  4.64006 -17.133 28.1351
RightForeArm  -36.9261 35.9236 9.90386
RightHand  -3.11111 7.11922 -28.5973
LeftUpLeg  -5.82029 5.11189 2.40771
LeftLeg  4.29943 8.48768 -4.12378
LeftFoot  -0.564552 -0.20902 2.2506
LeftToes  4.18335e-011 1.59304e-011 3.38507e-012
362
root  5.01743 40.8505 -0.673663 -175.279 -86.5005 177.107
RightUpLeg  -7.34419 -10.9022 -6.81944
RightLeg  5.88778 -7.44946 3.57924
RightFoot  1.6555 -0.176177 1.64728
RightToes  -4.65663e-010 0 -3.6325e-017
Spine  1.15558 1.81826 1.06986
Spine1  14.9998 2.34674 -1.40044
HEad  36.5326 4.25518 -3.38834
LeftShoulder1  6.68128 -9.20271 -45.8204
LeftArm  -15.0877 30.7666 -22.594
LeftForeArm  81.4519 -77.4994 -41.3076
LeftHand  -0.244104 0.0205437 5.32207
RightShoulder  6.68209 10.0022 43.1226
RightArm  4.66564 -16.5077 27.938
RightForeArm  -36.1413 35.2753 9.67593
RightHand  -3.06282 7.06809 -28.2859
LeftUpLeg  -6.25605 5.56564 2.48543
LeftLeg  5.48943 8.41821 -4.32216
LeftFoot  -1.26444 -0.187705 2.21509
LeftToes  4.18335e-011 1.59304e-011 3.38507e-012
363
root  5.07899 40.7815 -0.430343 -178.45 -85.923 179.996
RightUpLeg  -8.37315 -12.4657 -6.59329
RightLeg  8.07143 -3.97744 2.75564
RightFoot  0.969007 -0.314085 2.97664
RightToes  -4.65663e-010 0 -3.6325e-017
Spine  1.67789 1.92021 0.53878
Spine1  14.754 2.40911 -1.30697
HEad  36.5826 4.24544 -3.42327
LeftShoulder1  6.7071 -9.24527 -45.8452
LeftArm  -14.8012 30.5358 -22.7753
LeftForeArm  81.2378 -77.3711 -40.6844
LeftHand  -0.244104 0.0205437 5.32207
RightShoulder  6.69999 10.0328 43.1415
RightArm  4.24975 -16.0792 27.7971
RightForeArm  -35.6341 35.198 9.63494
RightHand  -3.0726 7.09891 -28.3049
LeftUpLeg  -6.47856 5.93864 2.50795
LeftLeg  6.55362 8.44097 -4.4259
LeftFoot  -1.87154 -0.164002 2.11693
LeftToes  4.18335e-011 1.59304e-011 3.38507e-012
364
root  5.12703 40.7286 -0.219075 -179.404 -85.1613 -179.314
RightUpLeg  -9.56896 -13.3118 -6.32933
RightLeg  10.5545 0.522212 1.88537
RightFoot  0.0557572 -0.436575 4.37876
RightToes  -4.65663e-010 0 -3.6325e-017
Spine  2.10859 2.04603 0.219703
Spine1  14.5261 2.61566 -1.61666
HEad  36.5772 4.42239 -3.44026
LeftShoulder1  6.71311 -9.25158 -45.8642
LeftArm  -14.5195 30.1917 -22.7701
LeftForeArm  80.5344 -77.0945 -39.4853
LeftHand  -0.244104 0.0205437 5.32207
RightShoulder  6.73805 10.0688 43.2792
RightArm  3.71634 -15.8201 27.6982
RightForeArm  -35.5268 35.4586 9.71098
RightHand  -3.1049 7.15331 -28.4702
LeftUpLeg  -6.58913 6.12233 2.39382
LeftLeg  7.39394 8.89841 -4.39861
LeftFoot  -2.40559 -0.142716 2.01181
LeftToes  4.18335e-011 1.59304e-011 3.38507e-012
